<?xml version="1.0" encoding="UTF-8"?><svg id="Layer_1" xmlns="http://www.w3.org/2000/svg" width="29.2202" height="34.8554" viewBox="0 0 29.2202 34.8554"><path d="m14.9728,34.8554c-.2459,0-.4888-.078-.6972-.2282-.3438-.2488-.5264-.6508-.4881-1.0734l2.6496-29.1131c.0633-.6891.4947-1.2884,1.1293-1.5644L23.8095.1612c.3519-.1517.748-.1318,1.0822.0626.3342.1936.5492.5242.5904.9063l2.852,25.6095c.1531,1.3738-.5949,2.6695-1.8641,3.2216l-3.1347,1.3634c-.2783.1207-.5978.0972-.854-.0618-.2577-.159-.4211-.4329-.4373-.7347l-.2253-3.9608-1.2942.5639-.2665,4.404c-.0427.7141-.4785,1.3355-1.1352,1.6226l-3.6722,1.5976c-.1546.0663-.3166.1001-.4778.1001ZM24.2895.8149c-.0604,0-.1222.0125-.1796.0383l-6.243,2.7151c-.3814.1656-.6405.5256-.6788.9401l-2.6496,29.1131c-.0206.2238.1185.3504.1796.3946.0596.0456.2245.1399.4329.0471l3.6714-1.5976c.3946-.1723.6567-.5463.6817-.9762l.296-4.8648,2.7107-1.1794.2871,5.04c.0029.078.0515.1193.0795.1369s.0898.0383.1575.0103l3.1347-1.3634c.963-.4196,1.5328-1.4032,1.4165-2.4471L24.7341,1.2132c-.0162-.1421-.0957-.265-.2209-.3372-.0692-.0405-.1458-.0611-.2238-.0611Zm-4.6072,21.341l.0324-.6096c.2194-4.0609.6066-8.177.9821-12.1576l.0928-.9821.7524.0133c.2179,3.6972.4829,8.0003.851,12.2754l.0236.2694-2.7343,1.1912Zm1.4061-8.8307c-.2282,2.5384-.4388,5.1056-.586,7.6513l1.1161-.4859c-.2061-2.4236-.3784-4.8501-.5301-7.1655Z"/><path d="m26.3511,1.3675c.9508,8.5364,1.9013,17.0728,2.852,25.6093.1339,1.2022-.5314,2.3514-1.6407,2.8339-1.0449.4545-2.0899.909-3.1348,1.3636-.3493.1519-.7431-.0905-.7647-.4708-.0853-1.5005-.1706-3.001-.2559-4.5014-.801.3484-1.2015.5226-2.0024.871-.0935,1.5448-.1869,3.0896-.2804,4.6344-.0345.5695-.3856,1.0714-.9088,1.299l-3.6729,1.5976c-.568.2471-1.1932-.2046-1.137-.8214.8831-9.7042,1.766-19.4084,2.6492-29.1126.0502-.5512.397-1.0313.9045-1.252l6.2431-2.7156c.5092-.2215,1.0873.1132,1.1488.6651Zm-3.0907,19.5562c-.3517-4.0905-.6107-8.1884-.8527-12.2866-.411,4.3685-.8382,8.7424-1.0744,13.1248.7708-.3353,1.1562-.5029,1.927-.8382Z"/><path d="m8.5134,33.369c-.1995,0-.4005-.0412-.5904-.1237l-6.1532-2.6768c-.5396-.2356-.8879-.7671-.8879-1.3546V1.4782c0-.4999.2496-.9615.6677-1.2353.4174-.2746.9409-.3195,1.398-.1185l11.9478,5.1961c.5396.2348.8879.7664.8879,1.3546v3.6317c0,.4991-.2496.9607-.667,1.2346-.4174.2768-.9423.3188-1.3988.1193l-2.7166-1.1809c-.2304-.1016-.4771-.0795-.6847.0574-.2076.1362-.3269.3571-.3269.6052v3.3151c0,.2879.1708.5485.4344.6626l3.8363,1.669c.5396.2341.8879.7657.8879,1.3546v3.3343c0,.4991-.2496.9615-.6677,1.2353-.4174.2739-.9401.3195-1.398.1193l-2.0812-.9055c-.2304-.1001-.4771-.0795-.6847.0574s-.3269.3563-.3269.6052v9.3012c0,.4991-.2496.9615-.6677,1.2353-.2452.1605-.5256.2429-.8083.2429ZM2.3565.7538c-.1369,0-.2724.0398-.3939.1193-.2076.1362-.3269.3571-.3269.6052v27.7357c0,.2871.1708.5477.4351.6626l6.1532,2.6768c.2275.0987.4756.078.6847-.0574.2076-.1369.3269-.3563.3269-.6052v-9.3012c0-.4991.2496-.9615.6677-1.2353.4174-.2739.9409-.318,1.398-.1193l2.0812.9055c.2275.0987.4771.078.6847-.0574.2076-.1369.3269-.3563.3269-.6052v-3.3343c0-.2879-.1708-.5485-.4344-.6626l-3.8363-1.6697c-.5396-.2334-.8879-.7649-.8879-1.3539v-3.3151c0-.4999.2496-.9615.6677-1.2353.4174-.2739.9409-.3202,1.398-.1185l2.7166,1.1809c.229.0994.4778.078.6847-.0582.2076-.1362.3269-.3563.3269-.6044v-3.6317c0-.2879-.1708-.5485-.4344-.6626L2.6473.8149c-.095-.0412-.1936-.0611-.2908-.0611Z"/><path d="m1.5386.5053c3.9826,1.7323,7.9651,3.4647,11.9477,5.197.4015.1746.6612.5708.6612,1.0086v3.6315c0,.7922-.8122,1.3246-1.5386,1.0086-.9055-.3939-1.8111-.7878-2.7166-1.1817-.7264-.316-1.5386.2164-1.5386,1.0086v3.3155c0,.4378.2597.834.6612,1.0086l3.8366,1.6688c.4015.1746.6612.5708.6612,1.0086v3.3343c0,.7922-.8122,1.3246-1.5386,1.0086-.6939-.3018-1.3878-.6037-2.0817-.9055-.7264-.316-1.5386.2164-1.5386,1.0086v9.3011c0,.7922-.8122,1.3246-1.5386,1.0086-2.0513-.8923-4.1025-1.7845-6.1538-2.6768-.4015-.1746-.6612-.5708-.6612-1.0086V1.5139C0,.7218.8122.1893,1.5386.5053Z"/></svg>