<?xml version="1.0" encoding="UTF-8"?><svg id="Layer_1" xmlns="http://www.w3.org/2000/svg" width="7.3476" height="9.059" viewBox="0 0 7.3476 9.059"><path d="m3.7651,9.059c-.063,0-.125-.0195-.1782-.0586-.0884-.0635-.1348-.166-.125-.2744l.666-7.3208c.0161-.1748.126-.3271.2871-.3975l1.5693-.6826c.0918-.0381.1914-.0332.2773.0161.085.0493.1396.1338.1514.2314l.7178,6.4404c.0381.3477-.1514.6748-.4727.8154l-.7881.3428c-.0713.0293-.1523.0244-.2188-.0156-.0664-.041-.1084-.1113-.1133-.1895l-.0566-.9883-.3154.1377-.0674,1.1035c-.0098.1816-.1201.3398-.2891.4121l-.9224.4023c-.0396.0166-.0811.0254-.1221.0254ZM6.1074.4994c-.0146,0-.0293.0034-.043.0093l-1.5693.6826c-.0942.041-.1587.1299-.168.2324l-.666,7.3198c-.0049.0537.0283.084.043.0947.0156.0117.0537.0352.1035.0117l.9229-.4023c.0986-.042.1631-.1338.1689-.2402l.0752-1.2266.6904-.3018.0723,1.2754c.001.0176.0127.0264.0186.0303.0059.0049.0205.0088.0342.0029l.7881-.3428c.2402-.1045.3828-.3496.3535-.6104l-.7178-6.4395c-.0039-.0342-.0225-.064-.0527-.0811-.0166-.0098-.0352-.0146-.0537-.0146Zm-1.1641,5.3691l.0088-.1621c.0547-1.0225.1533-2.0591.248-3.0615l.0225-.2422.1992.0034c.0576.9741.123,2.0225.2139,3.0864l.0059.0713-.0654.0293c-.1934.085-.29.127-.4844.2109l-.1484.0645Zm.3584-2.1606c-.0547.6133-.1055,1.2334-.1406,1.8481.0908-.0391.167-.0723.2695-.1172-.0498-.5859-.0918-1.166-.1289-1.731Z"/><path d="m6.6261.6332c.2391,2.1465.4781,4.2931.7172,6.4396.0337.3023-.1336.5913-.4126.7126-.2628.1143-.5255.2286-.7883.3429-.0878.0382-.1868-.0228-.1923-.1184-.0214-.3773-.0429-.7546-.0643-1.1319-.2014.0876-.3021.1314-.5035.219-.0235.3885-.047.7769-.0705,1.1654-.0087.1432-.097.2694-.2285.3266l-.9236.4017c-.1428.0621-.3-.0514-.2859-.2066.2221-2.4402.4441-4.8804.6662-7.3205.0126-.1386.0998-.2593.2275-.3148l1.5699-.6829c.128-.0557.2734.0285.2889.1672Zm-.7772,4.9175c-.0884-1.0286-.1536-2.059-.2144-3.0895-.1033,1.0985-.2108,2.1983-.2702,3.3003.1938-.0843.2907-.1265.4846-.2108Z"/><path d="m2.1416,8.4008c-.0513,0-.103-.0098-.1514-.0312l-1.5474-.6729c-.1377-.0596-.2266-.1953-.2266-.3457V.3769C.2163.2494.2798.1317.3862.0619c.1069-.0698.2393-.0815.3574-.0303l3.0039,1.3066c.1377.0601.2266.1953.2266.3452v.9136c0,.1274-.0635.2451-.1704.3149-.1064.0703-.2407.0806-.3564.0303l-.6831-.2974c-.0552-.0249-.1172-.0181-.1675.0146-.0508.0332-.0796.0869-.0796.1475v.8335c0,.0703.0415.1343.1064.1621l.9644.4194c.1377.0601.2266.1958.2266.3457v.8379c0,.127-.0635.2451-.1699.3145-.1069.0703-.2407.0811-.3564.0312l-.5239-.2275c-.0537-.0244-.1162-.0186-.167.0137-.0508.0332-.0801.0879-.0801.1484v2.3389c0,.1279-.064.2451-.1704.3154-.062.04-.1333.0605-.2051.0605ZM.5923.2001c-.0337,0-.0664.0098-.0962.0293-.0508.0332-.0796.0869-.0796.1475v6.9741c0,.0703.0415.1338.1064.1621l1.5474.6729c.0571.0264.1172.0205.167-.0137.0508-.0332.0796-.0869.0796-.1475v-2.3389c0-.1279.064-.2461.1709-.3154.1064-.0713.2397-.082.3564-.0303l.5234.2275c.0566.0244.1167.0195.167-.0146.0508-.0332.0796-.0869.0796-.1475v-.8379c0-.0703-.0415-.1343-.1064-.1621l-.9644-.4194c-.1377-.0601-.2266-.1958-.2266-.3457v-.8335c0-.127.0635-.2446.1699-.3149.106-.0693.2393-.0815.3569-.0308l.6836.2974c.0557.0249.1157.019.167-.0142.0508-.0332.0796-.0869.0796-.1475v-.9136c0-.0703-.0415-.1338-.1064-.1616L.6636.2152c-.0229-.0103-.0474-.0151-.0713-.0151Z"/><path d="m.3869.1323c1.0014.4356,2.0029.8712,3.0043,1.3068.101.0439.1663.1435.1663.2536v.9132c0,.1992-.2042.3331-.3869.2536-.2277-.099-.4554-.1981-.6831-.2971-.1827-.0795-.3869.0544-.3869.2536v.8337c0,.1101.0653.2097.1663.2536l.9647.4196c.101.0439.1663.1435.1663.2536v.8384c0,.1992-.2042.3331-.3869.2536-.1745-.0759-.349-.1518-.5235-.2277-.1827-.0795-.3869.0544-.3869.2536v2.3388c0,.1992-.2042.3331-.3869.2536-.5158-.2244-1.0316-.4487-1.5474-.6731-.101-.0439-.1663-.1435-.1663-.2536V.3859C0,.1867.2042.0528.3869.1323Z"/></svg>