<?xml version="1.0" encoding="UTF-8"?>
<svg id="Layer_1" data-name="Layer 1" xmlns="http://www.w3.org/2000/svg" viewBox="0 0 14.47 17.7">
  <defs>
    <style>
      .cls-1 {
        fill: #fff;
      }

      .cls-2 {
        fill: none;
        stroke: #fff;
        stroke-miterlimit: 10;
        stroke-width: .25px;
      }
    </style>
  </defs>
  <path class="cls-2" d="m12.44,1.08c.47,4.23.94,8.46,1.41,12.68.07.6-.26,1.16-.81,1.4-.52.23-1.04.45-1.55.68-.17.08-.37-.04-.38-.23-.04-.74-.08-1.49-.13-2.23-.4.17-.6.26-.99.43-.05.77-.09,1.53-.14,2.3-.02.28-.19.53-.45.64l-1.82.79c-.28.12-.59-.1-.56-.41.44-4.81.87-9.61,1.31-14.42.02-.27.2-.51.45-.62l3.09-1.34c.25-.11.54.06.57.33Zm-1.53,9.69c-.17-2.03-.3-4.06-.42-6.09-.2,2.16-.42,4.33-.53,6.5.38-.17.57-.25.95-.42Z"/>
  <path class="cls-1" d="m13.05,1.18c.47,4.23.94,8.46,1.41,12.68.07.6-.26,1.16-.81,1.4-.52.23-1.04.45-1.55.68-.17.08-.37-.04-.38-.23-.04-.74-.08-1.49-.13-2.23-.4.17-.6.26-.99.43-.05.77-.09,1.53-.14,2.3-.02.28-.19.53-.45.64l-1.82.79c-.28.12-.59-.1-.56-.41.44-4.81.87-9.61,1.31-14.42.02-.27.2-.51.45-.62l3.09-1.34c.25-.11.54.06.57.33Zm-1.53,9.69c-.17-2.03-.3-4.06-.42-6.09-.2,2.16-.42,4.33-.53,6.5.38-.17.57-.25.95-.42Z"/>
  <path class="cls-2" d="m1.39.17c1.97.86,3.94,1.72,5.92,2.57.2.09.33.28.33.5v1.8c0,.39-.4.66-.76.5-.45-.2-.9-.39-1.35-.59-.36-.16-.76.11-.76.5v1.64c0,.22.13.41.33.5l1.9.83c.2.09.33.28.33.5v1.65c0,.39-.4.66-.76.5s-.69-.3-1.03-.45-.76.11-.76.5v4.61c0,.39-.4.66-.76.5-1.02-.44-2.03-.88-3.05-1.33-.2-.09-.33-.28-.33-.5V.67C.62.28,1.03.01,1.39.17Z"/>
  <path class="cls-1" d="m.76.19c1.97.86,3.94,1.72,5.92,2.57.2.09.33.28.33.5v1.8c0,.39-.4.66-.76.5-.45-.2-.9-.39-1.35-.59-.36-.16-.76.11-.76.5v1.64c0,.22.13.41.33.5l1.9.83c.2.09.33.28.33.5v1.65c0,.39-.4.66-.76.5s-.69-.3-1.03-.45-.76.11-.76.5v4.61c0,.39-.4.66-.76.5-1.02-.44-2.03-.88-3.05-1.33-.2-.09-.33-.28-.33-.5V.69C0,.3.4.03.76.19Z"/>
</svg>